<svg width="35" height="12" viewBox="0 0 41 16" fill="none" xmlns="http://www.w3.org/2000/svg">
<path d="M39.5036 0.98756L39.1734 0.855457C39.1177 0.833186 39.0571 0.87419 39.0571 0.934156C39.0571 0.980969 39.0192 1.01892 38.9724 1.01892L0.910361 1.01892C0.825957 1.01892 0.765929 1.10101 0.791521 1.18144L1.46879 3.31001C1.47268 3.32223 1.47466 3.33499 1.47466 3.34782L1.47466 13.82C1.47466 13.8573 1.49133 13.8926 1.52009 13.9163L2.35751 14.6059C2.36381 14.6111 2.36959 14.6169 2.37475 14.6232L2.80197 15.1453C2.82565 15.1743 2.86108 15.1911 2.89849 15.1911H4.25449C4.2893 15.1911 4.32252 15.1765 4.34613 15.151L4.90193 14.5488C4.92554 14.5233 4.95876 14.5087 4.99357 14.5087L35.2621 14.5087C35.3046 14.5087 35.3442 14.487 35.3672 14.4512L39.0191 8.74182C39.044 8.70296 39.0576 8.65796 39.0584 8.61184L39.1617 2.77394C39.162 2.75882 39.165 2.74387 39.1706 2.72983L39.5731 1.72358C39.579 1.70885 39.582 1.69313 39.582 1.67726V1.10335C39.582 1.05236 39.551 1.0065 39.5036 0.98756Z" fill="#333333" stroke="#333333" stroke-width="0.599255"/>
<path d="M40.1423 0.970388L39.812 0.838284C39.7564 0.816014 39.6958 0.857018 39.6958 0.916984C39.6958 0.963796 39.6579 1.00175 39.611 1.00175L1.54903 1.00175C1.46463 1.00175 1.4046 1.08384 1.43019 1.16427L2.10746 3.29283C2.11135 3.30506 2.11333 3.31781 2.11333 3.33065L2.11333 13.8028C2.11333 13.8401 2.13 13.8754 2.15877 13.8991L2.99618 14.5887C3.00248 14.5939 3.00826 14.5997 3.01343 14.606L3.44064 15.1282C3.46432 15.1571 3.49975 15.1739 3.53716 15.1739H4.89316C4.92797 15.1739 4.96119 15.1594 4.9848 15.1338L5.54061 14.5317C5.56421 14.5061 5.59743 14.4915 5.63224 14.4915L35.9008 14.4915C35.9433 14.4915 35.9829 14.4699 36.0058 14.434L39.6578 8.72465C39.6826 8.68579 39.6962 8.64079 39.6971 8.59467L39.8004 2.75677C39.8007 2.74165 39.8037 2.7267 39.8093 2.71266L40.2118 1.70641C40.2177 1.69168 40.2207 1.67596 40.2207 1.66009V1.08618C40.2207 1.03518 40.1897 0.989327 40.1423 0.970388Z" fill="#333333"/>
<rect width="1.00889" height="9.13317" rx="0.24942" transform="matrix(-1 0 0 1 32.9551 3.2063)" fill="#FFD361"/>
<rect width="1.00889" height="9.13317" rx="0.24942" transform="matrix(-1 0 0 1 26.9023 3.2063)" fill="#FFD361"/>
<rect width="1.00889" height="9.13317" rx="0.24942" transform="matrix(-1 0 0 1 20.8496 3.2063)" fill="#FFD361"/>
<rect width="1.00889" height="9.13317" rx="0.24942" transform="matrix(-1 0 0 1 14.7949 3.2063)" fill="#FFD361"/>
<rect width="1.00889" height="9.13317" rx="0.24942" transform="matrix(-1 0 0 1 8.74414 3.2063)" fill="#FFD361"/>
</svg>
