<svg
  width="32"
  height="15"
  viewBox="0 0 37 19"
  fill="none"
  xmlns="http://www.w3.org/2000/svg"
>
  <path
    fill-rule="evenodd"
    clip-rule="evenodd"
    d="M36.5018 6.71847C36.5944 6.90361 36.6426 7.10776 36.6426 7.31476V15.2982C36.6426 16.0346 36.0456 16.6316 35.3092 16.6316H28.0285C27.2922 16.6316 26.6952 16.0346 26.6952 15.2982V2.33333C26.6952 1.59695 27.2922 1 28.0285 1H32.8185C33.3236 1 33.7852 1.28534 34.0111 1.73705L36.5018 6.71847ZM32.9328 1.80864L34.5448 4.59814L35.7049 6.99181C35.9195 7.43455 35.597 7.94922 35.105 7.94922H29.8882C29.52 7.94922 29.2215 7.65074 29.2215 7.28255V2.1422C29.2215 1.77401 29.52 1.47553 29.8882 1.47553H32.3556C32.5937 1.47553 32.8137 1.6025 32.9328 1.80864Z"
    fill="currentColor"
  />
  <circle
    r="2.64912"
    transform="matrix(-1 0 0 1 8.69788 15.6842)"
    fill="currentColor"
    stroke="#FFD361"
    stroke-width="1.33333"
  />
  <rect
    x="-0.0833334"
    y="0.0833334"
    width="24.1491"
    height="1.57018"
    rx="0.583333"
    transform="matrix(-1 0 0 1 27.4759 10.6315)"
    fill="currentColor"
    stroke="currentColor"
    stroke-width="0.166667"
  />
  <rect
    width="4.42105"
    height="1.73684"
    rx="0.666667"
    transform="matrix(0 -1 -1 0 4.90625 14.5789)"
    fill="currentColor"
  />
  <rect
    x="-0.0833334"
    y="0.0833334"
    width="24.1491"
    height="1.57018"
    rx="0.583333"
    transform="matrix(-1 0 0 1 27.4759 12.8421)"
    fill="currentColor"
    stroke="#FFD361"
    stroke-width="0.166667"
  />
  <rect
    x="-0.0833334"
    y="0.0833334"
    width="10.7281"
    height="1.57018"
    rx="0.583333"
    transform="matrix(-1 0 0 1 23.3704 15.0526)"
    fill="currentColor"
    stroke="#FFD361"
    stroke-width="0.166667"
  />
  <path
    d="M24.9108 1.23144L24.7422 1.164C24.7074 1.15005 24.6695 1.17572 24.6695 1.21326C24.6695 1.24257 24.6457 1.26632 24.6164 1.26632L0.871992 1.26632C0.778093 1.26632 0.711313 1.35765 0.739784 1.44713L1.13575 2.6916C1.14008 2.7052 1.14228 2.71939 1.14228 2.73367L1.14228 9.25135C1.14228 9.29281 1.16082 9.33209 1.19282 9.35845L1.69035 9.76817C1.69736 9.77395 1.70378 9.78039 1.70953 9.78742L1.95499 10.0874C1.98134 10.1196 2.02076 10.1383 2.06237 10.1383H2.85594C2.89466 10.1383 2.93162 10.1221 2.95788 10.0937L3.26979 9.75577C3.29605 9.72732 3.33301 9.71113 3.37173 9.71113L22.2605 9.71113C22.3078 9.71113 22.3519 9.68702 22.3774 9.64715L24.6272 6.12989C24.6548 6.08665 24.6699 6.0366 24.6708 5.98528L24.7347 2.37612C24.735 2.3593 24.7384 2.34267 24.7446 2.32705L24.9881 1.7183C24.9947 1.70191 24.998 1.68443 24.998 1.66678V1.36026C24.998 1.30352 24.9635 1.25251 24.9108 1.23144Z"
    fill="currentColor"
    stroke="currentColor"
    stroke-width="0.666667"
  />
  <path
    fill-rule="evenodd"
    clip-rule="evenodd"
    d="M25.1426 1.15326L25.3112 1.22071C25.3639 1.24177 25.3984 1.29279 25.3984 1.34952V1.65604C25.3984 1.67369 25.3951 1.69118 25.3885 1.70757L25.145 2.31632C25.1388 2.33194 25.1354 2.34857 25.1351 2.36539L25.0712 5.97455C25.0703 6.02586 25.0552 6.07592 25.0276 6.11915L22.7778 9.63642C22.7523 9.67628 22.7082 9.7004 22.6609 9.7004L3.77212 9.7004C3.7334 9.7004 3.69644 9.71658 3.67018 9.74503L3.35827 10.0829C3.33201 10.1114 3.29505 10.1276 3.25633 10.1276H2.46276C2.42115 10.1276 2.38173 10.1089 2.35538 10.0767L2.10992 9.77668C2.10418 9.76966 2.09775 9.76321 2.09074 9.75744L1.59322 9.34771C1.56121 9.32136 1.54267 9.28207 1.54267 9.24062L1.54267 2.72293C1.54267 2.70866 1.54047 2.69447 1.53614 2.68087L1.14017 1.4364C1.1117 1.34692 1.17848 1.25559 1.27238 1.25559L25.0168 1.25559C25.0461 1.25559 25.0698 1.23183 25.0698 1.20253C25.0698 1.16499 25.1078 1.13932 25.1426 1.15326ZM20.5729 2.6357C20.7261 2.6357 20.8503 2.75993 20.8503 2.91318L20.8503 8.07572C20.8503 8.22897 20.7261 8.3532 20.5729 8.3532H20.4962C20.343 8.3532 20.2188 8.22897 20.2188 8.07572L20.2188 2.91318C20.2188 2.75993 20.343 2.6357 20.4962 2.6357H20.5729ZM17.0609 2.91318C17.0609 2.75993 16.9366 2.6357 16.7834 2.6357H16.7068C16.5535 2.6357 16.4293 2.75993 16.4293 2.91318L16.4293 8.07572C16.4293 8.22897 16.5535 8.3532 16.7068 8.3532H16.7834C16.9366 8.3532 17.0609 8.22897 17.0609 8.07572L17.0609 2.91318ZM12.9939 2.6357C13.1472 2.6357 13.2714 2.75993 13.2714 2.91318L13.2714 8.07572C13.2714 8.22897 13.1472 8.3532 12.9939 8.3532H12.9173C12.764 8.3532 12.6398 8.22897 12.6398 8.07572L12.6398 2.91318C12.6398 2.75993 12.764 2.6357 12.9173 2.6357H12.9939ZM9.48191 2.91318C9.48191 2.75993 9.35768 2.6357 9.20443 2.6357H9.12781C8.97456 2.6357 8.85033 2.75993 8.85033 2.91318L8.85033 8.07572C8.85033 8.22897 8.97456 8.3532 9.12781 8.3532H9.20443C9.35768 8.3532 9.48191 8.22897 9.48191 8.07572L9.48191 2.91318ZM5.41496 2.6357C5.56821 2.6357 5.69244 2.75993 5.69244 2.91318L5.69244 8.07572C5.69244 8.22897 5.56821 8.3532 5.41496 8.3532H5.33834C5.18509 8.3532 5.06086 8.22897 5.06086 8.07572L5.06086 2.91318C5.06086 2.75993 5.18509 2.6357 5.33834 2.6357H5.41496Z"
    fill="currentColor"
  />
  <circle
    r="2.64912"
    transform="matrix(-1 0 0 1 27.485 15.6842)"
    fill="currentColor"
    stroke="currentColor"
    stroke-width="1.33333"
  />
</svg>