<svg width="100" height="100" viewBox="0 0 100 100" fill="none" xmlns="http://www.w3.org/2000/svg">
<path d="M32.2921 16.6666C32.2921 14.9407 30.893 13.5416 29.1671 13.5416C27.4412 13.5416 26.0421 14.9407 26.0421 16.6666V24.2351C19.821 25.1146 14.9062 30.0352 14.0742 36.3118L13.7136 39.0324C13.6524 39.4937 13.594 39.9552 13.5382 40.417C13.3902 41.6418 14.3552 42.7083 15.589 42.7083H84.4117C85.6455 42.7083 86.6105 41.6418 86.4625 40.417C86.4067 39.9552 86.3482 39.4937 86.2871 39.0324L85.9265 36.3118C85.0945 30.0352 80.1798 25.1147 73.9588 24.2351V16.6666C73.9588 14.9407 72.5597 13.5416 70.8338 13.5416C69.1079 13.5416 67.7088 14.9407 67.7088 16.6666V23.6151C55.9266 22.5658 44.0744 22.5658 32.2921 23.6151V16.6666Z" fill="#FFD361"/>
<path d="M87.2695 50.9398C87.233 49.8296 86.3157 48.9583 85.2049 48.9583H14.7957C13.685 48.9583 12.7677 49.8296 12.7312 50.9398C12.4837 58.4717 12.9412 66.019 14.1026 73.4827C14.9818 79.1329 19.572 83.4727 25.2626 84.0339L30.2335 84.5241C43.3795 85.8205 56.6212 85.8205 69.7672 84.5241L74.738 84.0339C80.4286 83.4727 85.0189 79.1329 85.8981 73.4827C87.0595 66.019 87.517 58.4717 87.2695 50.9398Z" fill="#FFD361"/>
</svg>
