<svg width="186" height="101" viewBox="0 0 186 101" fill="none" xmlns="http://www.w3.org/2000/svg">
<path fill-rule="evenodd" clip-rule="evenodd" d="M185.312 33.049C185.701 33.8952 185.902 34.8156 185.902 35.7471V81.386C185.902 84.9516 183.012 87.8421 179.446 87.8421H141.516C137.951 87.8421 135.06 84.9516 135.06 81.386V7.45614C135.06 3.89051 137.951 1 141.516 1H166.432C168.954 1 171.244 2.46761 172.298 4.75808L185.312 33.049ZM166.867 5.35446L175.18 20.9895L181.455 35.0641C182.407 37.1991 180.844 39.6067 178.507 39.6067H151.2C149.417 39.6067 147.972 38.1614 147.972 36.3786V6.86983C147.972 5.08702 149.417 3.64176 151.2 3.64176H164.017C165.211 3.64176 166.307 4.30048 166.867 5.35446Z" fill="#FFD361"/>
<path d="M29.3431 82.5789C29.3431 91.2284 35.7336 97.7719 43.0624 97.7719C50.3912 97.7719 56.7817 91.2284 56.7817 82.5789C56.7817 73.9294 50.3912 67.3859 43.0624 67.3859C35.7336 67.3859 29.3431 73.9294 29.3431 82.5789Z" fill="#FFD361" stroke="#FFD361" stroke-width="6.45614"/>
<rect x="-0.403509" y="0.403509" width="123.474" height="8.84211" rx="2.82456" transform="matrix(-1 0 0 1 139.095 54.5088)" fill="#FFD361" stroke="#FFD361" stroke-width="0.807018"/>
<rect width="24.5614" height="8.8772" rx="3.22807" transform="matrix(0 -1 -1 0 23.6914 76.4387)" fill="#FFD361"/>
<rect x="-0.403509" y="0.403509" width="123.474" height="8.84211" rx="2.82456" transform="matrix(-1 0 0 1 139.095 66.7896)" fill="#FFD361" stroke="#FFD361" stroke-width="0.807018"/>
<rect x="-0.403509" y="0.403509" width="54.8772" height="8.84211" rx="2.82456" transform="matrix(-1 0 0 1 118.113 79.0702)" fill="#FFD361" stroke="#FFD361" stroke-width="0.807018"/>
<path d="M125.973 2.30397L125.102 1.92524C124.911 1.84221 124.697 1.98218 124.697 2.19043C124.697 2.35013 124.568 2.47959 124.408 2.47959L2.99287 2.47959C2.54474 2.47959 2.22224 2.91003 2.34814 3.34011L4.42044 10.4194C4.43838 10.4807 4.44749 10.5443 4.44749 10.6081L4.44749 46.9043C4.44749 47.0954 4.52886 47.2774 4.67123 47.4049L7.25352 49.7164C7.28616 49.7456 7.31586 49.7779 7.3422 49.8129L8.61255 51.5006C8.73947 51.6692 8.93824 51.7684 9.14928 51.7684H13.2058C13.403 51.7684 13.5902 51.6817 13.7178 51.5314L15.3308 49.6321C15.4584 49.4818 15.6457 49.3952 15.8428 49.3952L112.389 49.3952C112.627 49.3952 112.847 49.2693 112.968 49.0641L124.518 29.4374C124.636 29.2372 124.699 29.01 124.703 28.7778L125.032 8.61781C125.033 8.54233 125.047 8.46759 125.073 8.39674L126.336 4.96508C126.363 4.89078 126.377 4.81224 126.377 4.73307V2.92005C126.377 2.65259 126.218 2.41061 125.973 2.30397Z" fill="#FFD361" stroke="#FFD361" stroke-width="3.22807"/>
<path fill-rule="evenodd" clip-rule="evenodd" d="M127.155 1.86561L128.026 2.24434C128.271 2.35098 128.43 2.59296 128.43 2.86041V4.67343C128.43 4.7526 128.416 4.83115 128.388 4.90544L127.126 8.33711C127.099 8.40796 127.085 8.48269 127.084 8.55818L126.756 28.7182C126.752 28.9504 126.688 29.1776 126.571 29.3777L115.021 49.0045C114.9 49.2096 114.68 49.3356 114.442 49.3356L17.8956 49.3356C17.6984 49.3356 17.5112 49.4222 17.3835 49.5725L15.7706 51.4718C15.6429 51.6221 15.4557 51.7087 15.2585 51.7087H11.202C10.991 51.7087 10.7922 51.6096 10.6653 51.441L9.39494 49.7533C9.36859 49.7183 9.3389 49.686 9.30626 49.6568L6.72396 47.3452C6.5816 47.2178 6.50023 47.0358 6.50023 46.8447L6.50023 10.5485C6.50023 10.4846 6.49112 10.4211 6.47317 10.3598L4.40087 3.28047C4.27497 2.85039 4.59747 2.41996 5.0456 2.41996L126.461 2.41996C126.621 2.41996 126.75 2.29049 126.75 2.13079C126.75 1.92254 126.964 1.78257 127.155 1.86561ZM103.844 10.0873C104.586 10.0873 105.187 10.6888 105.187 11.4308L105.187 40.5076C105.187 41.2496 104.586 41.8511 103.844 41.8511H103.303C102.561 41.8511 101.959 41.2496 101.959 40.5076L101.959 11.4308C101.959 10.6888 102.561 10.0873 103.303 10.0873H103.844ZM85.8184 11.4308C85.8184 10.6888 85.2168 10.0873 84.4748 10.0873L83.9339 10.0873C83.1918 10.0873 82.5903 10.6888 82.5903 11.4308L82.5903 40.5076C82.5903 41.2496 83.1918 41.8511 83.9339 41.8511H84.4748C85.2168 41.8511 85.8184 41.2496 85.8184 40.5076L85.8184 11.4308ZM65.1076 10.0873C65.8496 10.0873 66.4512 10.6888 66.4512 11.4308L66.4512 40.5076C66.4512 41.2496 65.8496 41.8511 65.1076 41.8511H64.5667C63.8246 41.8511 63.2231 41.2496 63.2231 40.5076L63.2231 11.4308C63.2231 10.6888 63.8246 10.0873 64.5667 10.0873L65.1076 10.0873ZM47.082 11.4308C47.082 10.6888 46.4805 10.0873 45.7385 10.0873H45.1975C44.4555 10.0873 43.854 10.6888 43.854 11.4308L43.854 40.5076C43.854 41.2496 44.4555 41.8511 45.1975 41.8511H45.7385C46.4805 41.8511 47.082 41.2496 47.082 40.5076L47.082 11.4308ZM26.3713 10.0871C27.1133 10.0871 27.7148 10.6887 27.7148 11.4307L27.7148 40.5074C27.7148 41.2495 27.1133 41.851 26.3713 41.851H25.8303C25.0883 41.851 24.4868 41.2495 24.4868 40.5074L24.4868 11.4307C24.4868 10.6887 25.0883 10.0871 25.8303 10.0871H26.3713Z" fill="#FFD361"/>
<path d="M125.378 82.5789C125.378 91.2284 131.769 97.7719 139.098 97.7719C146.426 97.7719 152.817 91.2284 152.817 82.5789C152.817 73.9294 146.426 67.3859 139.098 67.3859C131.769 67.3859 125.378 73.9294 125.378 82.5789Z" fill="#FFD361" stroke="#FFD361" stroke-width="6.45614"/>
</svg>
